0
SECTION
2
HEADER
9
$ACADVER
1
AC1015
0
ENDSEC
0
SECTION
2
TABLES
0
TABLE
2
LTYPE
70
1
0
LTYPE
2
CONTINUOUS
70
0
3
Solid line
72
65
73
0
40
0.0
0
ENDTAB
0
TABLE
2
LAYER
70
1
0
LAYER
2
0
70
0
62
7
6
CONTINUOUS
370
-1
0
ENDTAB
0
ENDSEC
0
SECTION
2
BLOCKS
0
BLOCK
8
0
2
INNER
70
0
10
0.0
20
0.0
30
0.0
3
INNER
1

0
LINE
8
0
10
0.0
20
0.0
30
0.0
11
25.0
21
0.0
31
0.0
0
ENDBLK
0
BLOCK
8
0
2
OUTER
70
0
10
0.0
20
0.0
30
0.0
3
OUTER
1

0
INSERT
8
0
2
INNER
10
10.0
20
10.0
30
0.0
0
ENDBLK
0
ENDSEC
0
SECTION
2
ENTITIES
0
INSERT
8
0
2
OUTER
10
0.0
20
0.0
30
0.0
0
ENDSEC
0
EOF
